<svg width="184" height="244" viewBox="0 0 184 244" fill="none" xmlns="http://www.w3.org/2000/svg">
<path fill="#EBEBEB" d="M0 0H184V244H0V0Z"/>
<path fill="#828282" d="M89.9332 135.386V134.999C89.9763 130.884 90.4072 127.609 91.2259 125.175C92.0445 122.74 93.2079 120.769 94.7159 119.261C96.224 117.753 98.0336 116.363 100.145 115.092C101.416 114.317 102.558 113.401 103.57 112.346C104.583 111.268 105.38 110.03 105.962 108.629C106.565 107.229 106.866 105.678 106.866 103.976C106.866 101.865 106.371 100.033 105.38 98.4822C104.389 96.9311 103.064 95.7354 101.405 94.8952C99.7463 94.055 97.9044 93.6349 95.8793 93.6349C94.1127 93.6349 92.4107 94.0012 90.7734 94.7337C89.1361 95.4661 87.7681 96.6187 86.6694 98.1914C85.5707 99.7641 84.9351 101.821 84.7628 104.364H76.6193C76.7917 100.701 77.7396 97.5666 79.4631 94.9599C81.2081 92.3531 83.5025 90.3603 86.3462 88.9815C89.2115 87.6027 92.3892 86.9133 95.8793 86.9133C99.6709 86.9133 102.967 87.6674 105.768 89.1754C108.59 90.6835 110.766 92.7517 112.295 95.38C113.847 98.0083 114.622 101.003 114.622 104.364C114.622 106.733 114.256 108.877 113.523 110.794C112.812 112.712 111.778 114.424 110.421 115.933C109.085 117.441 107.47 118.776 105.574 119.94C103.678 121.125 102.159 122.374 101.017 123.688C99.8756 124.981 99.0462 126.521 98.5291 128.309C98.0121 130.097 97.732 132.327 97.6889 134.999V135.386H89.9332ZM94.0696 154.517C92.4754 154.517 91.1074 153.946 89.9656 152.804C88.8237 151.663 88.2528 150.295 88.2528 148.7C88.2528 147.106 88.8237 145.738 89.9656 144.596C91.1074 143.454 92.4754 142.884 94.0696 142.884C95.6638 142.884 97.0318 143.454 98.1737 144.596C99.3155 145.738 99.8864 147.106 99.8864 148.7C99.8864 149.756 99.6171 150.725 99.0785 151.609C98.5614 152.492 97.8613 153.203 96.978 153.741C96.1162 154.259 95.1468 154.517 94.0696 154.517Z"/>
</svg>
