<svg width="50" height="50" viewBox="0 0 50 50" fill="none" xmlns="http://www.w3.org/2000/svg">
<path d="M47.4124 30.5274L43.2854 28.246C43.702 26.0943 43.702 23.8871 43.2854 21.7355L47.4124 19.4541C47.8871 19.1944 48.1003 18.6565 47.9452 18.1557C46.8699 14.8541 45.0389 11.8678 42.646 9.38232C42.2778 9.00208 41.6772 8.90933 41.2122 9.16901L37.0852 11.4504C35.351 10.0222 33.3554 8.91861 31.1949 8.19522V3.64161C31.1949 3.12226 30.8171 2.66783 30.2843 2.55654C26.7288 1.79606 23.0862 1.83315 19.7052 2.55654C19.1723 2.66783 18.7945 3.12226 18.7945 3.64161V8.2045C16.6438 8.93716 14.6481 10.0408 12.9042 11.4597L8.78694 9.17829C8.31223 8.91861 7.72127 9.00208 7.35313 9.39159C4.96024 11.8678 3.12923 14.8541 2.05388 18.1649C1.88918 18.6657 2.112 19.2036 2.58671 19.4633L6.71373 21.7448C6.29716 23.8964 6.29716 26.1036 6.71373 28.2552L2.58671 30.5367C2.112 30.7963 1.89887 31.3342 2.05388 31.8351C3.12923 35.1367 4.96024 38.1229 7.35313 40.6084C7.72127 40.9886 8.32191 41.0814 8.78694 40.8217L12.914 38.5403C14.6481 39.9685 16.6438 41.0721 18.8042 41.7955V46.3584C18.8042 46.8777 19.182 47.3322 19.7148 47.4435C23.2702 48.2039 26.9129 48.1668 30.294 47.4435C30.8268 47.3322 31.2047 46.8777 31.2047 46.3584V41.7955C33.3554 41.0628 35.351 39.9592 37.0948 38.5403L41.2219 40.8217C41.6966 41.0814 42.2875 40.9979 42.6556 40.6084C45.0486 38.1322 46.8796 35.1459 47.955 31.8351C48.1003 31.325 47.8871 30.7871 47.4124 30.5274ZM24.9948 32.4101C20.7224 32.4101 17.2444 29.0806 17.2444 24.9907C17.2444 20.9008 20.7224 17.5714 24.9948 17.5714C29.2671 17.5714 32.745 20.9008 32.745 24.9907C32.745 29.0806 29.2671 32.4101 24.9948 32.4101Z" stroke="white" stroke-width="4"/>
</svg>
