<svg width="44" height="46" viewBox="0 0 44 46" fill="#000" xmlns="http://www.w3.org/2000/svg">
<path d="M43.3452 28.5274L39.4147 26.246C39.8114 24.0943 39.8114 21.8871 39.4147 19.7355L43.3452 17.4541C43.7973 17.1944 44.0003 16.6565 43.8526 16.1557C42.8285 12.8541 41.0847 9.86779 38.8057 7.38232C38.4551 7.00208 37.8831 6.90933 37.4402 7.16901L33.5097 9.45045C31.8581 8.02223 29.9575 6.91861 27.8999 6.19522V1.64161C27.8999 1.12226 27.5401 0.667826 27.0327 0.556536C23.6465 -0.203945 20.1773 -0.166848 16.9573 0.556536C16.4498 0.667826 16.09 1.12226 16.09 1.64161V6.2045C14.0417 6.93716 12.141 8.04078 10.4802 9.45973L6.55897 7.17829C6.10687 6.91861 5.54405 7.00208 5.19344 7.39159C2.91449 9.86779 1.17067 12.8541 0.146525 16.1649C-0.0103257 16.6657 0.201885 17.2036 0.653985 17.4633L4.58449 19.7448C4.18775 21.8964 4.18775 24.1036 4.58449 26.2552L0.653985 28.5367C0.201885 28.7963 -0.00109918 29.3342 0.146525 29.8351C1.17067 33.1367 2.91449 36.1229 5.19344 38.6084C5.54405 38.9886 6.11609 39.0814 6.55897 38.8217L10.4895 36.5403C12.141 37.9685 14.0417 39.0721 16.0992 39.7955V44.3584C16.0992 44.8777 16.459 45.3322 16.9665 45.4435C20.3526 46.2039 23.8218 46.1668 27.0419 45.4435C27.5493 45.3322 27.9092 44.8777 27.9092 44.3584V39.7955C29.9575 39.0628 31.8581 37.9592 33.5189 36.5403L37.4494 38.8217C37.9015 39.0814 38.4643 38.9979 38.8149 38.6084C41.0939 36.1322 42.8377 33.1459 43.8619 29.8351C44.0003 29.325 43.7973 28.7871 43.3452 28.5274V28.5274ZM21.995 30.4101C17.9261 30.4101 14.6137 27.0806 14.6137 22.9907C14.6137 18.9008 17.9261 15.5714 21.995 15.5714C26.0639 15.5714 29.3762 18.9008 29.3762 22.9907C29.3762 27.0806 26.0639 30.4101 21.995 30.4101Z"/>
</svg>
